<!-- <svg preserveAspectRatio="none" width="384" height="366" viewBox="0 0 384 366" fill="none" xmlns="http://www.w3.org/2000/svg">
<path
    vector-effect="non-scaling-stroke"
    d="M32 1H352C369.121 1 383 14.8792 383 32V334C383 351.121 369.121 365 352 365H32C14.8792 365 1 351.121 1 334V32C1 14.8792 14.8792 1 32 1Z"
    stroke="white"
    fill="white"
    stroke-opacity="1"
    stroke-width="2"
/>
</svg> -->

<svg preserveAspectRatio="none" width="384" height="366" viewBox="0 0 384 366" fill="none" xmlns="http://www.w3.org/2000/svg">
  <path
    vector-effect="non-scaling-stroke"
    d="M32 1H352C369.121 1 383 14.8792 383 32V334C383 351.121 369.121 365 352 365H32C14.8792 365 1 351.121 1 334V32C1 14.8792 14.8792 1 32 1Z"
    stroke="#bdb9b9"
    fill="none"
    stroke-opacity="1"
    stroke-width="2"
  />
</svg>

